<?xml version="1.0" encoding="iso-8859-1"?>
<!-- Uploaded to: SVG Repo, www.svgrepo.com, Generator: SVG Repo Mixer Tools -->
<svg height="800px" width="800px" version="1.1" id="Layer_1" xmlns="http://www.w3.org/2000/svg" xmlns:xlink="http://www.w3.org/1999/xlink" 
	 viewBox="0 0 511.999 511.999" xml:space="preserve">
<path style="fill:#2D527C;" d="M53.435,438.645c-15.518,0-31.139-3.312-45.747-10.133c-4.021-1.878-6.844-5.634-7.528-10.019
	c-0.686-4.385,0.858-8.823,4.114-11.838c1.623-1.502,2.912-2.767,4.056-3.981c21.623-22.945,28.138-55.548,17.004-85.083
	c-0.361-0.961-0.608-1.951-0.741-2.948c-8.299-20.76-12.504-42.703-12.504-65.277c0-97.071,78.975-176.044,176.046-176.044
	c7.36,0,13.328,5.967,13.328,13.328c0,7.361-5.968,13.328-13.328,13.328c-82.375,0-149.39,67.015-149.39,149.389
	c0,20.217,3.966,39.822,11.79,58.271c0.56,1.319,0.896,2.703,1.012,4.098c11.45,33.766,5.767,70.149-14.925,98.517
	c26.639,5.607,55.008-2.375,74.783-22.132c3.929-3.926,9.884-5.003,14.939-2.703c19.456,8.851,40.244,13.339,61.791,13.339
	c7.36,0,13.328,5.967,13.328,13.328s-5.968,13.328-13.328,13.328c-22.382,0-44.082-4.116-64.632-12.247
	C103.669,429.867,78.695,438.645,53.435,438.645z"/>
<path style="fill:#CEE8FA;" d="M493.972,411.816c-25.786-27.362-32.203-65.967-19.777-98.926l-0.458-0.051
	c8.271-19.504,12.847-40.954,12.847-63.473c0-89.866-72.852-162.718-162.718-162.718c-24.225,0-47.207,5.302-67.866,14.795
	c55.977,25.724,94.851,82.28,94.851,147.923c0,65.641-38.874,122.198-94.851,147.923c20.658,9.493,43.642,14.795,67.866,14.795
	c24.006,0,46.796-5.202,67.309-14.535c28.922,28.895,72.132,35.403,107.496,18.887C497.069,414.952,495.491,413.428,493.972,411.816
	z"/>
<g>
	<path style="fill:#2D527C;" d="M458.408,438.678C458.406,438.678,458.408,438.678,458.408,438.678
		c-25.899,0-50.397-8.996-69.921-25.511c-20.548,8.129-42.243,12.243-64.622,12.243c-25.606,0-50.31-5.387-73.432-16.012
		c-4.731-2.174-7.762-6.904-7.762-12.11s3.031-9.936,7.762-12.11c52.904-24.313,87.09-77.622,87.09-135.813
		s-34.183-111.5-87.09-135.811c-4.731-2.174-7.762-6.904-7.762-12.11c0-5.206,3.031-9.936,7.762-12.11
		c23.121-10.625,47.827-16.012,73.432-16.012c97.073,0,176.046,78.973,176.046,176.044c0,22.575-4.205,44.518-12.504,65.277
		c-0.133,0.998-0.379,1.989-0.741,2.949c-11.134,29.535-4.619,62.137,17.005,85.084c1.142,1.211,2.431,2.476,4.054,3.978
		c3.256,3.015,4.801,7.453,4.114,11.838c-0.685,4.385-3.507,8.141-7.528,10.02C490.069,435.162,474.194,438.678,458.408,438.678z
		 M391.171,384.219c3.463,0,6.869,1.349,9.423,3.9c15.428,15.414,35.96,23.904,57.813,23.904c5.691,0,11.393-0.604,16.965-1.781
		c-20.686-28.368-26.367-64.747-14.918-98.508c0.116-1.394,0.452-2.778,1.012-4.098c7.823-18.449,11.79-38.054,11.79-58.271
		c0-82.373-67.015-149.389-149.39-149.389c-12.27,0-24.293,1.455-35.964,4.344c47.113,32.507,76.278,86.691,76.278,145.045
		s-29.168,112.538-76.278,145.045c11.673,2.888,23.694,4.345,35.964,4.345c21.547,0,42.336-4.488,61.79-13.339
		C387.427,384.611,389.308,384.219,391.171,384.219z"/>
	<path style="fill:#2D527C;" d="M259.996,209.289H111.611c-7.36,0-13.328-5.967-13.328-13.328c0-7.361,5.968-13.328,13.328-13.328
		h148.385c7.36,0,13.328,5.967,13.328,13.328C273.324,203.322,267.357,209.289,259.996,209.289z"/>
	<path style="fill:#2D527C;" d="M259.996,266.403H111.611c-7.36,0-13.328-5.967-13.328-13.328s5.968-13.328,13.328-13.328h148.385
		c7.36,0,13.328,5.967,13.328,13.328S267.357,266.403,259.996,266.403z"/>
	<path style="fill:#2D527C;" d="M200.02,323.518h-88.409c-7.36,0-13.328-5.967-13.328-13.328s5.968-13.328,13.328-13.328h88.409
		c7.36,0,13.328,5.967,13.328,13.328S207.381,323.518,200.02,323.518z"/>
</g>
</svg>